<svg width="123" height="124" viewBox="0 0 123 124" fill="none" xmlns="http://www.w3.org/2000/svg">
<path d="M0.719971 62.36C0.719971 50.4134 3.36531 39.8321 8.65598 30.6161C14.1173 21.4 21.456 14.1467 30.672 8.85605C39.888 3.56538 50.2133 0.920044 61.648 0.920044C73.2533 0.920044 83.5786 3.56538 92.624 8.85605C101.84 14.1467 109.093 21.4 114.384 30.6161C119.845 39.8321 122.576 50.4134 122.576 62.36C122.576 74.136 119.845 84.7174 114.384 94.104C109.093 103.32 101.84 110.573 92.624 115.864C83.5786 121.155 73.2533 123.8 61.648 123.8C50.2133 123.8 39.888 121.155 30.672 115.864C21.456 110.573 14.1173 103.32 8.65598 94.104C3.36531 84.7174 0.719971 74.136 0.719971 62.36ZM21.456 62.36C21.456 70.552 23.1626 77.8054 26.576 84.12C30.16 90.4347 34.9386 95.4694 40.912 99.224C47.056 102.808 53.968 104.6 61.648 104.6C69.328 104.6 76.1546 102.808 82.128 99.224C88.272 95.4694 93.0506 90.4347 96.464 84.12C100.048 77.8054 101.84 70.552 101.84 62.36C101.84 54.168 100.048 46.9147 96.464 40.6C93.0506 34.1147 88.272 29.08 82.128 25.496C76.1546 21.912 69.328 20.12 61.648 20.12C53.968 20.12 47.056 21.912 40.912 25.496C34.9386 29.08 30.16 34.1147 26.576 40.6C23.1626 46.9147 21.456 54.168 21.456 62.36Z" fill="#2C53D1"/>
<path d="M36.635 62.74C36.635 57.7817 37.7204 53.39 39.8913 49.565C42.1322 45.74 45.1434 42.7296 48.9249 40.5337C52.7064 38.3379 56.9431 37.24 61.635 37.24C66.3969 37.24 70.6336 38.3379 74.3451 40.5337C78.1266 42.7296 81.1028 45.74 83.2737 49.565C85.5146 53.39 86.635 57.7817 86.635 62.74C86.635 67.6275 85.5146 72.0192 83.2737 75.915C81.1028 79.74 78.1266 82.7504 74.3451 84.9462C70.6336 87.1421 66.3969 88.24 61.635 88.24C56.9431 88.24 52.7064 87.1421 48.9249 84.9462C45.1434 82.7504 42.1322 79.74 39.8913 75.915C37.7204 72.0192 36.635 67.6275 36.635 62.74Z" fill="#049F4C"/>
</svg>
